<svg xmlns="http://www.w3.org/2000/svg" viewBox="0 0 445 445"><defs><style>.cls-1{fill:#333;}.cls-2{fill:#f2f2f2;}</style></defs><g id="Capa_2" data-name="Capa 2"><g id="Capa_1-2" data-name="Capa 1"><rect class="cls-1" width="445" height="445" rx="41.86"/><path class="cls-2" d="M139,64.14A35.18,35.18,0,0,1,174.6,29c20.08,0,36,15.48,36,35.14,0,19.25-15.9,34.73-36,34.73C154.93,98.87,139,83.39,139,64.14ZM267.89,98.87c20.09,0,36-15.48,36-34.73,0-19.66-15.9-35.14-36-35.14s-35.56,15.48-35.56,35.14C232.33,83.39,247.81,98.87,267.89,98.87ZM373.33,416H282.54l-15.9-55.64H167.48L151.59,416H71.67l95.81-299.14H278.35ZM249.9,301.36l-32.63-115L184.22,301.36Z"/></g></g></svg>